<svg width="240" height="240" viewBox="0 0 240 240" fill="none" xmlns="http://www.w3.org/2000/svg">
<g clip-path="url(#clip0)">
<rect width="240" height="240" rx="48" fill="url(#paint0_linear)"/>
<path d="M51.468 120.008C51.468 106.419 54.408 94.332 60.288 83.748C66.168 73.0333 74.3347 64.736 84.788 58.856C95.372 52.8453 107.328 49.84 120.656 49.84C136.989 49.84 150.971 54.152 162.6 62.776C174.229 71.4 182.004 83.16 185.924 98.056H149.076C146.332 92.3067 142.412 87.9293 137.316 84.924C132.351 81.9187 126.667 80.416 120.264 80.416C109.941 80.416 101.579 84.0093 95.176 91.196C88.7733 98.3827 85.572 107.987 85.572 120.008C85.572 132.029 88.7733 141.633 95.176 148.82C101.579 156.007 109.941 159.6 120.264 159.6C126.667 159.6 132.351 158.097 137.316 155.092C142.412 152.087 146.332 147.709 149.076 141.96H185.924C182.004 156.856 174.229 168.616 162.6 177.24C150.971 185.733 136.989 189.98 120.656 189.98C107.328 189.98 95.372 187.04 84.788 181.16C74.3347 175.149 66.168 166.852 60.288 156.268C54.408 145.684 51.468 133.597 51.468 120.008Z" fill="white"/>
</g>
<defs>
<linearGradient id="paint0_linear" x1="120" y1="0" x2="120" y2="240" gradientUnits="userSpaceOnUse">
<stop stop-color="#E100FF"/>
<stop offset="1" stop-color="#7F00FF"/>
</linearGradient>
<clipPath id="clip0">
<rect width="240" height="240" fill="white"/>
</clipPath>
</defs>
</svg>
